if (_typeface_js && _typeface_js.loadFace) _typeface_js.loadFace({"glyphs":{"S":{"x_min":57.109375,"x_max":704,"ha":758,"o":"m 57 44 l 100 221 q 340 160 218 160 q 449 187 410 160 q 489 261 489 214 q 453 331 489 303 q 330 390 418 360 q 68 669 68 478 q 164 871 68 792 q 422 951 261 951 q 667 902 562 951 l 619 731 q 419 777 523 777 q 319 752 355 777 q 283 686 283 727 q 313 624 283 650 q 458 556 343 598 q 645 443 586 510 q 704 274 704 375 q 604 65 704 145 q 326 -15 505 -15 q 57 44 174 -15 "},"/":{"x_min":28.578125,"x_max":455.96875,"ha":459,"o":"m 167 -56 l 28 -56 l 315 950 l 455 950 l 167 -56 "},"į":{"x_min":59,"x_max":310,"ha":382,"o":"m 310 880 q 277 799 310 831 q 191 768 244 768 q 105 799 138 768 q 73 880 73 831 q 106 961 73 929 q 191 993 139 993 q 276 961 243 993 q 310 880 310 929 m 86 0 l 86 679 l 297 679 l 297 0 q 203 -68 238 -29 q 168 -141 168 -108 q 183 -179 168 -164 q 222 -194 199 -194 q 290 -178 253 -194 l 305 -255 q 188 -280 258 -280 q 94 -249 129 -280 q 59 -164 59 -218 q 97 -70 59 -117 q 189 0 135 -23 l 86 0 "},"Ő":{"x_min":49,"x_max":965,"ha":1014,"o":"m 965 476 q 836 119 965 253 q 499 -15 708 -15 q 172 118 296 -15 q 49 461 49 252 q 178 812 49 674 q 511 951 307 951 q 841 817 717 951 q 965 476 965 684 m 271 466 q 335 241 271 329 q 504 154 400 154 q 676 240 612 154 q 740 469 740 327 q 675 693 740 605 q 506 782 611 782 q 335 693 400 782 q 271 466 271 604 m 402 1184 l 596 1184 l 455 1019 l 308 1019 l 402 1184 m 652 1184 l 847 1184 l 705 1019 l 558 1019 l 652 1184 "},"y":{"x_min":9.671875,"x_max":728.34375,"ha":732,"o":"m 9 678 l 243 678 q 381 219 372 261 l 385 219 l 502 678 l 728 678 l 574 248 q 462 -26 512 75 q 361 -182 411 -128 q 249 -268 311 -236 q 122 -307 187 -300 l 79 -126 q 219 -55 168 -108 q 271 21 271 -3 q 260 58 271 30 l 9 678 "},"Ž":{"x_min":34,"x_max":773,"ha":815,"o":"m 34 0 l 34 115 l 489 753 l 489 758 l 75 758 l 75 936 l 765 936 l 765 815 l 320 182 l 320 178 l 773 178 l 773 0 l 34 0 m 496 1006 l 342 1006 l 200 1181 l 345 1181 l 420 1089 l 491 1181 l 636 1181 l 496 1006 "},"g":{"x_min":46,"x_max":735,"ha":818,"o":"m 735 477 l 735 101 q 644 -193 735 -96 q 353 -291 553 -291 q 104 -236 203 -291 l 146 -74 q 346 -127 240 -127 q 477 -80 430 -127 q 525 51 525 -34 l 525 96 l 522 96 q 335 6 456 6 q 128 98 210 6 q 46 336 46 190 q 135 593 46 492 q 356 694 225 694 q 545 597 485 694 l 548 597 l 555 679 l 735 679 q 735 477 735 598 m 520 308 l 520 398 q 487 495 520 457 q 399 533 454 533 q 299 481 339 533 q 260 341 260 429 q 297 213 260 264 q 399 163 334 163 q 482 195 443 163 q 520 308 520 227 "},"–":{"x_min":41,"x_max":640,"ha":681,"o":"m 41 416 l 640 416 l 640 286 l 41 286 l 41 416 "},"ƒ":{"x_min":39.859375,"x_max":707.21875,"ha":777,"o":"m 161 426 l 161 573 l 287 573 q 592 917 321 917 q 707 894 662 917 l 674 743 q 607 756 642 756 q 534 726 566 756 q 490 573 503 696 l 631 573 l 631 426 l 472 426 q 431 112 439 162 q 395 2 423 62 q 310 -92 366 -57 q 166 -128 255 -128 q 39 -104 89 -128 l 69 45 q 135 33 100 33 q 214 81 195 33 q 242 193 234 129 l 269 426 l 161 426 "},"e":{"x_min":45.390625,"x_max":696,"ha":735,"o":"m 687 271 l 245 271 q 305 176 250 210 q 440 143 359 143 q 630 172 543 143 l 657 29 q 410 -15 554 -15 q 142 77 239 -15 q 45 331 45 170 q 138 586 45 479 q 389 694 231 694 q 615 598 535 694 q 696 352 696 502 q 687 271 696 303 m 244 418 l 500 418 q 472 508 500 465 q 378 552 444 552 q 288 515 324 552 q 244 418 252 478 "},"J":{"x_min":-1.109375,"x_max":493,"ha":577,"o":"m 282 353 l 282 936 l 493 936 l 493 348 q 410 74 493 164 q 158 -15 328 -15 q -1 8 68 -15 l 23 179 q 135 163 83 163 q 248 209 214 163 q 282 353 282 255 "},"ŕ":{"x_min":83,"x_max":503.875,"ha":531,"o":"m 83 0 l 83 452 q 83 679 83 605 l 265 679 l 265 549 l 273 549 q 349 657 298 620 q 458 694 401 694 q 503 689 490 694 l 503 489 q 446 496 477 496 q 342 462 388 496 q 296 343 296 428 l 296 0 l 83 0 m 279 973 l 473 973 l 303 761 l 159 761 l 279 973 "},"ļ":{"x_min":43.8125,"x_max":297,"ha":381,"o":"m 86 1 l 86 989 l 297 989 l 297 1 l 86 1 m 143 -341 l 43 -341 q 114 -63 92 -207 l 264 -63 q 143 -341 212 -225 "},"ţ":{"x_min":23,"x_max":469,"ha":507,"o":"m 113 806 l 319 863 l 319 679 l 469 679 l 469 521 l 319 521 l 319 282 q 338 187 319 214 q 402 160 357 160 q 466 166 442 160 l 466 4 q 329 -15 417 -15 q 173 42 234 -15 q 113 247 113 100 l 113 521 l 23 521 l 23 679 l 113 679 l 113 806 m 207 -341 l 107 -341 q 178 -63 156 -207 l 328 -63 q 207 -341 276 -225 "},"Ă":{"x_min":26.140625,"x_max":892.203125,"ha":925,"o":"m 588 244 l 313 244 l 245 0 l 26 0 l 316 934 l 593 934 l 892 0 l 663 0 l 588 244 m 344 402 l 555 402 q 448 778 472 676 l 445 778 l 401 600 l 344 402 m 271 1176 l 378 1176 q 463 1102 387 1102 q 542 1176 542 1102 l 654 1176 q 464 1006 654 1006 q 321 1050 372 1006 q 271 1176 271 1094 "},"^":{"x_min":57.171875,"x_max":754.0625,"ha":811,"o":"m 754 246 l 604 246 l 405 740 l 204 246 l 57 246 l 341 903 l 469 903 l 754 246 "},"D":{"x_min":91,"x_max":931,"ha":980,"o":"m 91 3 l 91 922 q 382 943 227 943 q 803 817 675 943 q 931 490 931 692 q 785 121 931 252 q 337 -10 640 -10 q 91 3 197 -10 m 302 769 l 302 161 q 378 157 319 157 q 621 241 535 157 q 708 482 708 325 q 629 702 708 626 q 402 778 550 778 q 302 769 340 778 "},"ł":{"x_min":4.15625,"x_max":404.359375,"ha":400,"o":"m 305 0 l 94 0 l 94 310 l 4 238 l 4 388 l 94 462 l 94 988 l 305 988 l 305 624 l 404 704 l 404 552 l 305 473 l 305 0 "},"ĺ":{"x_min":86,"x_max":429.03125,"ha":381,"o":"m 86 0 l 86 988 l 297 988 l 297 0 l 86 0 m 208 1223 l 429 1223 l 260 1048 l 91 1048 l 208 1223 "},"Ł":{"x_min":-3.796875,"x_max":691.765625,"ha":726,"o":"m 691 0 l 101 0 l 101 327 l -3 253 l -3 399 l 101 471 l 101 935 l 312 935 l 312 614 l 488 733 l 488 588 l 312 467 l 312 180 l 691 180 l 691 0 "},"ū":{"x_min":83,"x_max":732,"ha":815,"o":"m 732 679 l 732 219 q 732 0 732 110 l 552 0 l 542 98 l 537 98 q 323 -15 466 -15 q 146 60 209 -15 q 83 280 83 136 l 83 678 l 294 678 l 294 316 q 402 157 294 157 q 483 191 448 157 q 518 277 518 225 l 518 679 l 732 679 m 235 918 l 582 918 l 582 808 l 235 808 l 235 918 "},"w":{"x_min":16.328125,"x_max":1041.25,"ha":1056,"o":"m 16 679 l 230 679 q 325 178 308 291 l 328 178 q 364 349 338 248 l 449 679 l 616 679 q 735 178 722 266 l 737 178 q 835 679 747 284 l 1041 679 l 834 0 l 635 0 q 553 311 564 266 q 526 450 543 357 l 524 450 q 483 253 508 339 l 412 0 l 213 0 l 16 679 "},"$":{"x_min":74.828125,"x_max":701,"ha":776,"o":"m 452 -122 l 316 -122 l 316 13 q 74 70 172 13 l 117 235 q 352 172 233 172 q 450 195 414 172 q 487 258 487 218 q 452 323 487 296 q 337 375 418 350 q 143 480 203 418 q 83 631 83 541 q 145 792 83 725 q 321 881 207 859 l 321 1011 l 457 1011 l 457 886 q 661 843 574 886 l 619 684 q 415 734 521 734 q 327 712 357 734 q 297 656 297 691 q 335 597 297 623 q 465 538 373 570 q 646 433 591 493 q 701 276 701 373 q 635 110 701 180 q 452 19 570 40 l 452 -122 "},"\\":{"x_min":20.421875,"x_max":447.8125,"ha":475,"o":"m 447 -56 l 307 -56 l 20 950 l 160 950 l 447 -56 "},"ņ":{"x_min":83,"x_max":734,"ha":817,"o":"m 83 0 l 83 460 q 83 678 83 560 l 262 678 l 272 582 l 277 582 q 488 693 352 693 q 667 615 601 693 q 734 397 734 538 l 734 0 l 523 0 l 523 369 q 412 521 523 521 q 332 486 367 521 q 297 387 297 451 l 297 0 l 83 0 m 360 -328 l 261 -328 q 332 -50 310 -194 l 482 -50 q 360 -328 430 -212 "},"č":{"x_min":45,"x_max":619.40625,"ha":634,"o":"m 574 175 l 600 18 q 405 -15 523 -15 q 143 79 241 -15 q 45 333 45 174 q 150 593 45 492 q 435 694 255 694 q 600 666 527 694 l 566 507 q 445 530 514 530 q 312 477 362 530 q 261 341 261 424 q 314 203 261 254 q 449 153 366 153 q 574 175 516 153 m 481 761 l 341 761 l 204 973 l 339 973 l 412 851 l 484 973 l 619 973 l 481 761 "},"’":{"x_min":38.109375,"x_max":332.109375,"ha":365,"o":"m 167 584 l 38 572 q 133 956 103 758 l 332 956 q 167 584 265 745 "},"-":{"x_min":41,"x_max":407,"ha":448,"o":"m 41 433 l 407 433 l 407 291 l 41 291 l 41 433 "},"Q":{"x_min":49,"x_max":965,"ha":1014,"o":"m 965 5 l 906 -161 q 527 -29 738 -114 q 462 -10 499 -10 q 166 117 283 -10 q 49 453 49 245 q 176 810 49 671 q 514 950 304 950 q 841 816 717 950 q 965 477 965 683 q 904 222 965 334 q 739 62 843 110 l 739 56 q 965 5 822 32 m 272 464 q 336 240 272 327 q 506 154 401 154 q 677 240 613 154 q 742 468 742 327 q 677 692 742 604 q 509 781 613 781 q 337 692 402 781 q 272 464 272 603 "},"M":{"x_min":101,"x_max":1087,"ha":1185,"o":"m 894 0 q 894 755 894 556 l 879 755 q 655 15 845 605 l 490 15 q 354 514 377 422 q 303 755 332 607 l 284 755 q 284 351 284 474 l 284 0 l 101 0 l 101 936 l 416 936 q 543 492 521 577 q 586 290 564 407 l 591 290 q 677 615 642 507 l 782 936 l 1087 936 l 1087 0 l 894 0 "},"C":{"x_min":49,"x_max":803.203125,"ha":843,"o":"m 759 194 l 792 28 q 545 -15 698 -15 q 181 113 313 -15 q 49 455 49 242 q 193 815 49 680 q 564 951 337 951 q 803 907 718 951 l 759 738 q 574 776 674 776 q 353 694 436 776 q 271 468 271 612 q 352 245 271 327 q 575 163 433 163 q 759 194 678 163 "},"œ":{"x_min":45,"x_max":1173,"ha":1214,"o":"m 1167 275 l 737 275 q 790 180 737 215 q 920 145 844 145 q 1111 182 1020 145 l 1140 37 q 892 -15 1046 -15 q 636 105 724 -15 q 379 -15 550 -15 q 140 82 236 -15 q 45 337 45 180 q 141 594 45 495 q 393 694 238 694 q 535 661 470 694 q 636 571 599 629 q 875 694 721 694 q 1095 598 1017 694 q 1173 354 1173 503 q 1167 275 1173 331 m 731 421 l 977 421 q 946 515 977 479 q 854 552 915 552 q 766 514 801 552 q 731 421 731 476 m 540 340 q 504 485 540 430 q 405 541 468 541 q 300 485 337 541 q 263 338 263 430 q 301 193 263 248 q 402 137 339 137 q 503 191 466 137 q 540 340 540 245 "},"ě":{"x_min":45.390625,"x_max":696,"ha":735,"o":"m 687 271 l 245 271 q 305 176 250 210 q 440 143 359 143 q 630 172 543 143 l 657 29 q 410 -15 554 -15 q 142 77 239 -15 q 45 331 45 170 q 138 586 45 479 q 389 694 231 694 q 615 598 535 694 q 696 352 696 502 q 687 271 696 303 m 244 418 l 500 418 q 472 508 500 465 q 378 552 444 552 q 288 515 324 552 q 244 418 252 478 m 453 761 l 313 761 l 176 973 l 310 973 l 384 851 l 456 973 l 591 973 l 453 761 "},"Ē":{"x_min":91,"x_max":695.359375,"ha":748,"o":"m 654 568 l 654 394 l 302 394 l 302 175 l 695 175 l 695 0 l 91 0 l 91 936 l 676 936 l 676 761 l 302 761 l 302 568 l 654 568 m 197 1150 l 554 1150 l 554 1038 l 197 1038 l 197 1150 "},"!":{"x_min":60,"x_max":308,"ha":369,"o":"m 278 307 l 92 307 l 92 936 l 278 936 l 278 307 m 308 112 q 273 20 308 56 q 184 -15 239 -15 q 94 21 129 -15 q 60 112 60 57 q 94 204 60 168 q 184 240 129 240 q 273 204 238 240 q 308 112 308 168 "},"{":{"x_min":44,"x_max":390.890625,"ha":437,"o":"m 44 343 l 44 452 q 120 473 91 452 q 149 548 149 494 q 142 656 149 594 q 134 766 134 731 q 340 951 134 951 l 390 951 l 390 833 l 366 833 q 282 734 282 833 l 289 656 q 296 559 296 587 q 268 449 296 486 q 179 399 241 413 l 179 397 q 268 348 240 385 q 296 237 296 311 q 289 139 296 211 q 282 62 282 69 q 366 -37 282 -37 l 390 -37 l 390 -155 l 340 -155 q 134 33 134 -155 q 142 141 134 67 q 149 249 149 204 q 44 343 149 343 "},"X":{"x_min":24.5,"x_max":841.171875,"ha":867,"o":"m 841 0 l 594 0 q 424 337 429 326 l 421 337 q 370 220 406 296 l 268 0 l 24 0 l 300 473 l 34 936 l 279 936 q 434 609 401 687 l 436 609 q 583 936 466 692 l 827 936 l 558 479 l 841 0 "},"#":{"x_min":53,"x_max":715,"ha":769,"o":"m 254 0 l 130 0 l 166 246 l 53 246 l 53 376 l 187 376 l 209 532 l 94 532 l 94 662 l 230 662 l 264 902 l 386 902 l 352 662 l 480 662 l 515 902 l 638 902 l 604 662 l 715 662 l 715 532 l 583 532 l 562 376 l 675 376 l 675 246 l 540 246 l 506 0 l 381 0 l 416 246 l 289 246 l 254 0 m 311 376 l 438 376 l 460 532 l 333 532 l 311 376 "},"Ė":{"x_min":91,"x_max":695.359375,"ha":748,"o":"m 654 568 l 654 394 l 302 394 l 302 175 l 695 175 l 695 0 l 91 0 l 91 936 l 676 936 l 676 761 l 302 761 l 302 568 l 654 568 m 476 1105 q 449 1038 476 1067 q 384 1010 422 1010 q 316 1038 344 1010 q 288 1105 288 1067 q 315 1174 288 1146 q 384 1202 343 1202 q 449 1174 422 1202 q 476 1105 476 1146 "},"đ":{"x_min":46,"x_max":818,"ha":834,"o":"m 752 774 l 752 203 q 752 0 752 91 l 563 0 l 563 103 l 556 103 q 338 -15 486 -15 q 130 82 215 -15 q 46 333 46 179 q 134 593 46 493 q 353 694 223 694 q 535 617 481 694 l 538 617 l 538 774 l 354 774 l 354 904 l 539 904 l 539 988 l 750 988 l 750 904 l 818 904 l 818 774 l 752 774 m 539 308 l 539 387 q 502 489 539 449 q 409 530 466 530 q 300 477 340 530 q 260 340 260 425 q 300 205 260 255 q 408 156 340 156 q 498 193 458 156 q 539 308 539 230 "},"Ā":{"x_min":26.03125,"x_max":892.078125,"ha":925,"o":"m 588 244 l 313 244 l 245 0 l 26 0 l 315 934 l 593 934 l 892 0 l 663 0 l 588 244 m 344 402 l 555 402 q 448 778 472 676 l 445 778 l 401 600 l 344 402 m 286 1150 l 643 1150 l 643 1038 l 286 1038 l 286 1150 "},")":{"x_min":49.890625,"x_max":351,"ha":437,"o":"m 195 -161 l 49 -161 q 186 399 186 76 q 49 959 186 722 l 195 959 q 351 399 351 726 q 195 -161 351 76 "},"}":{"x_min":46.109375,"x_max":393,"ha":437,"o":"m 393 453 l 393 343 q 287 249 287 343 q 296 141 287 229 q 303 33 303 79 q 96 -155 303 -155 l 46 -155 l 46 -37 l 70 -37 q 155 62 155 -37 q 146 139 155 83 q 140 237 140 187 q 167 348 140 311 q 257 397 195 385 l 257 400 q 167 450 194 413 q 140 559 140 486 q 148 656 140 601 q 155 734 155 705 q 70 833 155 833 l 46 833 l 46 951 l 96 951 q 303 766 303 951 q 295 656 303 731 q 287 548 287 581 q 307 479 287 506 q 393 453 328 453 "},"‰":{"x_min":38,"x_max":1760,"ha":1801,"o":"m 38 634 q 108 837 38 757 q 292 917 178 917 q 472 843 405 917 q 539 649 539 770 q 466 440 539 519 q 285 361 393 361 q 108 435 178 361 q 38 634 38 510 m 382 639 q 359 755 382 711 q 290 799 337 799 q 221 755 246 799 q 197 638 197 712 q 221 523 197 567 q 290 479 245 479 q 382 639 382 479 m 414 -15 l 301 -15 l 813 916 l 926 916 l 414 -15 m 693 259 q 763 463 693 383 q 947 543 834 543 q 1127 469 1060 543 q 1194 274 1194 395 q 1119 63 1194 140 q 940 -14 1045 -14 q 763 61 833 -14 q 693 259 693 136 m 1037 265 q 1014 381 1037 337 q 945 425 992 425 q 876 381 901 425 q 852 263 852 338 q 877 147 852 190 q 945 104 902 104 q 1037 265 1037 104 m 1259 259 q 1329 463 1259 383 q 1513 543 1400 543 q 1693 469 1626 543 q 1760 274 1760 395 q 1685 63 1760 140 q 1506 -14 1611 -14 q 1329 61 1399 -14 q 1259 259 1259 136 m 1603 265 q 1579 383 1603 341 q 1511 425 1556 425 q 1442 381 1467 425 q 1418 263 1418 338 q 1442 148 1418 192 q 1511 104 1466 104 q 1603 265 1603 104 "},"ř":{"x_min":70.75,"x_max":503.875,"ha":531,"o":"m 83 0 l 83 452 q 83 679 83 605 l 265 679 l 265 549 l 273 549 q 349 657 298 620 q 458 694 401 694 q 503 689 490 694 l 503 489 q 446 496 477 496 q 342 462 388 496 q 296 343 296 428 l 296 0 l 83 0 m 348 761 l 208 761 l 70 973 l 205 973 l 279 851 l 351 973 l 486 973 l 348 761 "},"a":{"x_min":41,"x_max":662.890625,"ha":736,"o":"m 652 401 l 652 165 q 662 0 652 62 l 473 0 l 461 68 l 455 68 q 261 -15 387 -15 q 102 45 163 -15 q 41 193 41 106 q 144 386 41 319 q 442 454 248 454 l 442 462 q 317 547 442 547 q 128 495 215 547 l 88 631 q 353 694 199 694 q 576 618 500 694 q 652 401 652 542 m 449 251 l 449 321 q 249 215 249 321 q 271 156 249 177 q 333 135 293 135 q 412 165 376 135 q 449 251 449 196 "},"—":{"x_min":41,"x_max":1320,"ha":1361,"o":"m 41 416 l 1320 416 l 1320 286 l 41 286 l 41 416 "},"Ę":{"x_min":91,"x_max":703.53125,"ha":748,"o":"m 654 568 l 654 394 l 302 394 l 302 175 l 695 175 l 695 0 q 601 -68 636 -29 q 566 -141 566 -108 q 581 -179 566 -164 q 620 -194 596 -194 q 689 -178 651 -194 l 703 -255 q 586 -280 656 -280 q 492 -249 527 -280 q 457 -164 457 -218 q 495 -70 457 -118 q 587 0 534 -22 l 91 0 l 91 936 l 676 936 l 676 761 l 302 761 l 302 568 l 654 568 "},"=":{"x_min":54,"x_max":756,"ha":810,"o":"m 756 451 l 54 451 l 54 581 l 756 581 l 756 451 m 756 161 l 54 161 l 54 291 l 756 291 l 756 161 "},"N":{"x_min":91,"x_max":877,"ha":968,"o":"m 281 0 l 91 0 l 91 936 l 341 936 l 562 553 q 695 269 626 441 l 698 269 q 682 655 682 416 l 682 936 l 877 936 l 877 0 l 653 0 q 374 498 419 412 q 281 697 330 583 l 281 697 q 281 290 281 519 l 281 0 "},"⁄":{"x_min":-13.609375,"x_max":607.0625,"ha":595,"o":"m 100 -15 l -13 -15 l 492 918 l 607 918 l 100 -15 "},"2":{"x_min":61,"x_max":705,"ha":776,"o":"m 705 0 l 61 0 l 61 127 q 417 471 358 392 q 476 613 476 549 q 437 709 476 674 q 327 745 399 745 q 131 667 231 745 l 70 819 q 369 917 198 917 q 601 838 516 917 q 687 631 687 760 q 631 443 687 539 q 363 177 576 347 l 363 175 l 705 175 l 705 0 "},"Z":{"x_min":34,"x_max":773,"ha":815,"o":"m 34 0 l 34 115 l 489 753 l 489 758 l 75 758 l 75 936 l 765 936 l 765 815 l 320 182 l 320 178 l 773 178 l 773 0 l 34 0 "},"u":{"x_min":83,"x_max":732,"ha":815,"o":"m 732 679 l 732 219 q 732 0 732 110 l 552 0 l 542 98 l 537 98 q 323 -15 466 -15 q 146 60 209 -15 q 83 280 83 136 l 83 678 l 294 678 l 294 316 q 402 157 294 157 q 483 191 448 157 q 518 277 518 225 l 518 679 l 732 679 "},"k":{"x_min":84,"x_max":779.5625,"ha":759,"o":"m 295 988 l 295 393 l 297 393 q 488 679 315 429 l 742 679 l 495 404 l 779 0 l 518 0 l 349 279 l 295 211 l 295 0 l 84 0 l 84 988 l 295 988 "},"Ÿ":{"x_min":16.203125,"x_max":840.828125,"ha":852,"o":"m 527 0 l 316 0 l 316 385 l 16 935 l 258 935 q 431 532 424 548 q 601 935 462 618 l 840 935 l 527 393 l 527 0 m 388 1104 q 362 1037 388 1065 q 298 1010 336 1010 q 229 1037 257 1010 q 202 1104 202 1065 q 229 1172 202 1144 q 298 1200 257 1200 q 361 1172 335 1200 q 388 1104 388 1144 m 670 1104 q 643 1037 670 1064 q 578 1010 617 1010 q 511 1037 538 1010 q 485 1104 485 1064 q 511 1172 485 1145 q 578 1200 538 1200 q 643 1172 617 1200 q 670 1104 670 1144 "},"ų":{"x_min":83,"x_max":742.890625,"ha":815,"o":"m 732 679 l 732 219 q 732 0 732 110 q 641 -68 676 -28 q 606 -141 606 -108 q 621 -179 606 -164 q 660 -194 637 -194 q 727 -178 691 -194 l 742 -255 q 626 -280 696 -280 q 531 -249 566 -280 q 497 -164 497 -218 q 535 -70 497 -117 q 627 0 573 -23 l 552 0 l 542 98 l 537 98 q 324 -15 467 -15 q 146 60 209 -15 q 83 280 83 136 l 83 678 l 294 678 l 294 316 q 402 157 294 157 q 483 191 448 157 q 518 277 518 225 l 518 679 l 732 679 "},"Ů":{"x_min":91,"x_max":865,"ha":956,"o":"m 91 935 l 302 935 l 302 405 q 346 218 302 283 q 475 154 391 154 q 654 405 654 154 l 654 935 l 865 935 l 865 416 q 763 94 865 204 q 469 -15 662 -15 q 91 419 91 -15 l 91 935 m 322 1088 q 365 1187 322 1148 q 480 1226 408 1226 q 595 1188 553 1226 q 637 1088 637 1150 q 594 991 637 1029 q 480 954 552 954 q 366 992 410 954 q 322 1088 322 1030 m 542 1088 q 524 1135 542 1116 q 478 1155 506 1155 q 435 1135 452 1155 q 419 1088 419 1116 q 435 1043 419 1062 q 478 1025 452 1025 q 524 1042 506 1025 q 542 1088 542 1060 "},"Ω":{"x_min":47.578125,"x_max":1024.4375,"ha":1070,"o":"m 1024 0 l 613 0 l 635 216 q 789 354 745 257 q 834 572 834 452 q 761 830 834 729 q 536 932 688 932 q 310 830 383 932 q 238 572 238 729 q 282 354 238 452 q 436 216 326 257 l 458 0 l 47 0 l 47 230 l 67 230 q 94 164 78 184 q 159 144 110 144 l 379 144 l 379 183 q 145 336 215 228 q 75 567 75 445 q 205 862 75 746 q 536 978 336 978 q 866 862 735 978 q 997 567 997 746 q 926 336 997 445 q 693 183 856 228 l 693 144 l 912 144 q 977 164 961 144 q 1004 230 993 184 l 1024 230 l 1024 0 "},"Ş":{"x_min":57.109375,"x_max":704,"ha":758,"o":"m 57 44 l 100 221 q 340 160 218 160 q 449 187 410 160 q 489 261 489 214 q 453 331 489 303 q 330 390 418 360 q 68 669 68 478 q 164 871 68 792 q 422 951 261 951 q 667 902 562 951 l 619 731 q 419 777 523 777 q 319 752 355 777 q 283 686 283 727 q 313 624 283 650 q 458 556 343 598 q 645 443 586 510 q 704 274 704 375 q 604 65 704 145 q 326 -15 505 -15 q 57 44 174 -15 m 332 -341 l 232 -341 q 303 -63 281 -207 l 453 -63 q 332 -341 401 -225 "},"s":{"x_min":46.3125,"x_max":564,"ha":609,"o":"m 46 33 l 84 186 q 174 149 121 164 q 269 135 228 135 q 361 190 361 135 q 338 233 361 218 q 260 266 316 248 q 64 469 64 328 q 140 630 64 566 q 341 694 217 694 q 535 653 450 694 l 498 506 q 348 545 419 545 q 267 490 267 545 q 291 450 267 466 q 378 413 316 433 q 519 332 474 382 q 564 205 564 282 q 486 44 564 104 q 269 -15 408 -15 q 46 33 141 -15 "},"B":{"x_min":91,"x_max":789,"ha":841,"o":"m 91 3 l 91 922 q 365 943 201 943 q 666 877 576 943 q 756 705 756 811 q 716 587 756 640 q 604 507 677 535 l 604 504 q 739 419 690 481 q 789 274 789 358 q 688 70 789 151 q 320 -10 587 -10 q 91 3 187 -10 m 299 781 l 299 566 l 369 566 q 498 596 453 566 q 544 681 544 627 q 391 788 544 788 q 299 781 328 788 m 299 413 l 299 152 q 383 148 316 148 q 518 182 469 148 q 567 282 567 217 q 516 379 567 346 q 373 413 466 413 l 299 413 "},"…":{"x_min":102,"x_max":1257,"ha":1360,"o":"m 351 114 q 315 21 351 57 q 225 -15 280 -15 q 136 21 171 -15 q 102 114 102 57 q 137 206 102 170 q 227 243 172 243 q 316 206 282 243 q 351 114 351 170 m 804 114 q 768 21 804 57 q 678 -15 733 -15 q 589 21 624 -15 q 555 114 555 57 q 590 206 555 170 q 680 243 625 243 q 769 206 735 243 q 804 114 804 170 m 1257 114 q 1221 21 1257 57 q 1131 -15 1186 -15 q 1042 21 1077 -15 q 1008 114 1008 57 q 1043 206 1008 170 q 1133 243 1078 243 q 1222 206 1188 243 q 1257 114 1257 170 "},"Ű":{"x_min":91,"x_max":865,"ha":956,"o":"m 91 935 l 302 935 l 302 405 q 346 218 302 283 q 475 154 391 154 q 654 405 654 154 l 654 935 l 865 935 l 865 416 q 763 94 865 204 q 469 -15 662 -15 q 91 419 91 -15 l 91 935 m 373 1184 l 567 1184 l 426 1019 l 279 1019 l 373 1184 m 623 1184 l 818 1184 l 676 1019 l 529 1019 l 623 1184 "},"ē":{"x_min":45.390625,"x_max":696,"ha":735,"o":"m 687 271 l 245 271 q 305 176 251 210 q 440 143 359 143 q 630 172 543 143 l 658 29 q 410 -15 554 -15 q 142 77 239 -15 q 45 331 45 170 q 138 586 45 479 q 389 694 231 694 q 615 598 535 694 q 696 352 696 502 q 687 271 696 303 m 244 418 l 500 418 q 472 508 500 465 q 379 552 444 552 q 289 515 324 552 q 244 418 253 478 m 216 918 l 563 918 l 563 808 l 216 808 l 216 918 "},"?":{"x_min":67.8125,"x_max":569,"ha":623,"o":"m 379 305 l 195 305 q 195 353 195 347 q 274 556 195 463 q 342 647 327 617 q 357 701 357 677 q 257 783 357 783 q 115 739 178 783 l 67 892 q 303 951 169 951 q 498 890 428 951 q 569 734 569 830 q 544 632 569 685 q 450 502 519 578 q 379 329 379 426 l 379 305 m 407 112 q 372 20 407 56 q 283 -15 338 -15 q 193 21 228 -15 q 159 112 159 57 q 193 204 159 168 q 283 240 228 240 q 372 204 337 240 q 407 112 407 168 "},"H":{"x_min":91,"x_max":874,"ha":965,"o":"m 91 936 l 302 936 l 302 576 l 663 576 l 663 936 l 874 936 l 874 0 l 663 0 l 663 390 l 302 390 l 302 0 l 91 0 l 91 936 "},"Ņ":{"x_min":91,"x_max":877,"ha":968,"o":"m 281 0 l 91 0 l 91 935 l 341 935 l 562 552 q 695 269 626 440 l 698 269 q 682 654 682 415 l 682 935 l 877 935 l 877 0 l 653 0 q 374 497 419 412 q 281 696 330 582 l 281 696 q 281 289 281 519 l 281 0 m 436 -328 l 337 -328 q 408 -50 386 -194 l 558 -50 q 436 -328 506 -212 "},"c":{"x_min":45,"x_max":600.34375,"ha":634,"o":"m 574 175 l 600 18 q 405 -15 523 -15 q 143 79 241 -15 q 45 333 45 174 q 150 593 45 492 q 435 694 255 694 q 600 666 527 694 l 566 507 q 445 530 514 530 q 312 477 362 530 q 261 341 261 424 q 314 203 261 254 q 449 153 366 153 q 574 175 516 153 "},"Ī":{"x_min":20,"x_max":377,"ha":393,"o":"m 91 936 l 302 936 l 302 0 l 91 0 l 91 936 m 20 1150 l 377 1150 l 377 1038 l 20 1038 l 20 1150 "},"•":{"x_min":53,"x_max":415,"ha":468,"o":"m 415 475 q 361 345 415 399 q 234 291 308 291 q 106 344 159 291 q 53 475 53 397 q 106 605 53 551 q 234 660 159 660 q 361 605 308 660 q 415 475 415 551 "},"(":{"x_min":86,"x_max":387.125,"ha":437,"o":"m 241 959 l 387 959 q 251 398 251 728 q 387 -161 251 75 l 241 -161 q 86 398 86 74 q 241 959 86 723 "},"U":{"x_min":91,"x_max":865,"ha":956,"o":"m 91 935 l 302 935 l 302 405 q 346 218 302 283 q 475 154 391 154 q 654 405 654 154 l 654 935 l 865 935 l 865 416 q 763 94 865 204 q 469 -15 662 -15 q 91 419 91 -15 l 91 935 "},"◊":{"x_min":9.53125,"x_max":632.921875,"ha":641,"o":"m 274 0 l 9 513 l 274 1016 l 367 1016 l 632 513 l 367 0 l 274 0 m 147 513 l 321 169 l 495 513 l 321 849 l 147 513 "},"F":{"x_min":91,"x_max":670.859375,"ha":739,"o":"m 91 0 l 91 936 l 670 936 l 670 761 l 302 761 l 302 549 l 646 549 l 646 375 l 302 375 l 302 0 l 91 0 "},"ā":{"x_min":41,"x_max":662.890625,"ha":736,"o":"m 652 401 l 652 165 q 662 0 652 62 l 473 0 l 461 68 l 455 68 q 261 -15 387 -15 q 102 45 163 -15 q 41 193 41 106 q 144 386 41 319 q 442 454 248 454 l 442 462 q 317 547 442 547 q 128 495 215 547 l 88 631 q 353 694 199 694 q 576 618 500 694 q 652 401 652 542 m 449 251 l 449 321 q 249 215 249 321 q 271 156 249 177 q 333 135 293 135 q 412 165 376 135 q 449 251 449 196 m 196 918 l 543 918 l 543 808 l 196 808 l 196 918 "},":":{"x_min":67,"x_max":316,"ha":358,"o":"m 316 559 q 281 468 316 504 q 192 432 247 432 q 102 468 137 432 q 68 559 68 504 q 102 652 68 616 q 192 689 136 689 q 281 652 247 689 q 316 559 316 616 m 315 112 q 280 20 315 56 q 191 -15 246 -15 q 101 21 136 -15 q 67 112 67 57 q 101 205 67 169 q 191 242 136 242 q 280 205 246 242 q 315 112 315 169 "},"ă":{"x_min":41,"x_max":662.890625,"ha":736,"o":"m 652 401 l 652 165 q 662 0 652 62 l 473 0 l 461 68 l 455 68 q 261 -15 387 -15 q 102 45 163 -15 q 41 193 41 106 q 144 386 41 319 q 442 454 248 454 l 442 462 q 316 547 442 547 q 127 495 214 547 l 88 631 q 353 694 199 694 q 576 618 500 694 q 652 401 652 542 m 449 251 l 449 321 q 249 215 249 321 q 271 156 249 177 q 333 135 293 135 q 412 165 376 135 q 449 251 449 196 m 191 959 l 291 959 q 368 875 304 875 q 447 959 440 875 l 548 959 q 500 825 548 872 q 368 779 453 779 q 237 825 284 779 q 191 959 191 872 "},"*":{"x_min":44,"x_max":587,"ha":629,"o":"m 394 951 l 513 881 l 367 702 l 367 699 l 587 744 l 587 602 l 365 641 l 365 637 l 513 465 l 392 392 l 313 608 l 310 608 l 233 392 l 114 465 l 261 638 l 260 641 l 44 602 l 44 744 l 259 699 l 259 702 l 114 881 l 235 951 l 312 736 l 314 736 l 394 951 "},"†":{"x_min":47.96875,"x_max":681.03125,"ha":729,"o":"m 278 935 l 451 935 l 451 663 l 681 663 l 681 517 l 451 517 l 451 -69 l 278 -69 l 278 517 l 47 517 l 47 663 l 278 663 l 278 935 "},"ś":{"x_min":46.3125,"x_max":564,"ha":609,"o":"m 46 33 l 84 186 q 174 149 121 164 q 269 135 228 135 q 361 190 361 135 q 338 233 361 218 q 260 266 316 248 q 64 469 64 328 q 140 630 64 566 q 341 694 217 694 q 535 653 450 694 l 498 506 q 348 545 419 545 q 267 490 267 545 q 291 450 267 466 q 378 413 316 433 q 519 332 474 382 q 564 205 564 282 q 486 44 564 104 q 269 -15 408 -15 q 46 33 141 -15 m 359 973 l 554 973 l 384 761 l 239 761 l 359 973 "},"V":{"x_min":13.609375,"x_max":886.078125,"ha":896,"o":"m 566 0 l 318 0 l 13 936 l 245 936 q 447 205 436 287 l 450 205 q 541 543 483 355 l 662 936 l 886 936 l 566 0 "},"Ŗ":{"x_min":91,"x_max":801.390625,"ha":827,"o":"m 91 0 l 91 922 q 375 943 206 943 q 674 872 583 943 q 766 672 766 802 q 720 531 766 594 q 601 443 674 468 l 601 437 q 725 265 686 405 q 801 0 795 15 l 586 0 q 520 217 558 51 q 468 333 501 300 q 364 367 436 367 l 299 367 l 299 0 l 91 0 m 299 778 l 299 521 l 386 521 q 510 557 464 521 q 556 655 556 593 q 514 751 556 717 q 398 785 473 785 q 299 778 324 785 m 379 -328 l 279 -328 q 350 -50 328 -194 l 500 -50 q 379 -328 448 -212 "},"0":{"x_min":45,"x_max":731,"ha":776,"o":"m 731 454 q 640 109 731 234 q 386 -15 550 -15 q 134 109 224 -15 q 45 448 45 234 q 133 787 45 656 q 390 918 221 918 q 642 793 553 918 q 731 454 731 668 m 255 451 q 289 222 255 301 q 387 143 323 143 q 484 221 450 143 q 519 451 519 299 q 388 757 519 757 q 290 678 325 757 q 255 451 255 599 "},"ō":{"x_min":45,"x_max":762,"ha":807,"o":"m 762 347 q 659 82 762 180 q 401 -15 556 -15 q 145 81 245 -15 q 45 334 45 177 q 145 595 45 496 q 412 694 246 694 q 664 596 567 694 q 762 347 762 499 m 261 338 q 299 193 261 248 q 402 137 338 137 q 504 192 466 137 q 543 340 543 247 q 506 485 543 428 q 404 541 469 541 q 299 484 336 541 q 261 338 261 428 m 232 918 l 579 918 l 579 808 l 232 808 l 232 918 "},"”":{"x_min":38.109375,"x_max":604.328125,"ha":636,"o":"m 167 584 l 38 572 q 133 956 103 758 l 332 956 q 167 584 260 738 m 439 584 l 310 572 q 405 956 375 758 l 604 956 q 439 584 537 745 "},"@":{"x_min":72,"x_max":1011,"ha":1071,"o":"m 734 117 l 759 33 q 506 -15 651 -15 q 197 108 323 -15 q 72 424 72 231 q 138 690 72 567 q 324 881 205 812 q 589 951 442 951 q 891 836 771 951 q 1011 544 1011 721 q 935 309 1011 399 q 747 220 860 220 q 628 325 642 220 l 626 325 q 446 220 557 220 q 333 269 377 220 q 290 402 290 319 q 379 628 290 534 q 613 723 469 723 q 778 688 714 723 l 738 431 q 733 374 733 397 q 776 314 733 314 q 866 376 826 314 q 906 543 906 439 q 816 775 906 686 q 574 864 726 864 q 294 745 408 864 q 180 439 180 626 q 278 171 180 268 q 534 74 376 74 q 734 117 648 74 m 617 478 l 635 605 q 593 611 613 611 q 477 554 525 611 q 430 420 430 498 q 499 333 430 333 q 573 375 538 333 q 617 478 609 418 "},"Ķ":{"x_min":91,"x_max":863.875,"ha":860,"o":"m 91 -1 l 91 935 l 299 935 l 299 522 q 375 634 341 585 l 584 935 l 846 935 l 531 537 l 863 -1 l 617 -1 l 380 404 l 299 304 l 299 -1 l 91 -1 m 382 -328 l 282 -328 q 353 -50 331 -194 l 503 -50 q 382 -328 451 -212 "},"i":{"x_min":72,"x_max":309,"ha":381,"o":"m 297 0 l 86 0 l 86 679 l 297 679 l 297 0 m 309 879 q 276 798 309 830 q 190 767 243 767 q 104 798 137 767 q 72 879 72 830 q 105 960 72 928 q 190 992 138 992 q 275 960 242 992 q 309 879 309 928 "},"Ļ":{"x_min":91,"x_max":681.75,"ha":716,"o":"m 91 1 l 91 936 l 302 936 l 302 181 l 681 181 l 681 1 l 91 1 m 310 -341 l 210 -341 q 281 -63 259 -207 l 431 -63 q 310 -341 379 -225 "},"ć":{"x_min":45,"x_max":613.953125,"ha":634,"o":"m 574 175 l 600 18 q 405 -15 523 -15 q 143 79 241 -15 q 45 333 45 174 q 150 593 45 492 q 435 694 255 694 q 600 666 527 694 l 566 507 q 445 530 514 530 q 312 477 362 530 q 261 341 261 424 q 314 203 261 254 q 449 153 366 153 q 574 175 516 153 m 419 973 l 613 973 l 443 761 l 299 761 l 419 973 "},"]":{"x_min":60.328125,"x_max":342,"ha":437,"o":"m 60 951 l 342 951 l 342 -155 l 60 -155 l 60 -38 l 191 -38 l 191 834 l 60 834 l 60 951 "},"Ģ":{"x_min":49,"x_max":887,"ha":961,"o":"m 887 538 l 887 45 q 567 -9 720 -9 q 178 121 308 -9 q 49 457 49 251 q 197 813 49 680 q 589 946 346 946 q 855 898 755 946 l 810 729 q 585 771 717 771 q 356 690 441 771 q 271 469 271 610 q 354 246 271 330 q 574 163 437 163 q 683 176 651 163 l 683 371 l 534 371 l 534 538 l 887 538 m 480 -341 l 381 -341 q 451 -63 430 -207 l 601 -63 q 480 -341 549 -225 "},"m":{"x_min":83,"x_max":1115,"ha":1199,"o":"m 83 0 l 83 460 q 83 679 83 561 l 257 679 l 266 584 l 270 584 q 476 694 341 694 q 590 662 540 694 q 662 575 640 631 l 665 575 q 884 694 749 694 q 1052 616 990 694 q 1115 395 1115 538 l 1115 0 l 911 0 l 911 365 q 808 522 911 522 q 732 486 762 522 q 702 392 702 450 l 702 0 l 498 0 l 498 374 q 472 483 498 445 q 398 522 446 522 q 322 485 354 522 q 290 391 290 449 l 290 0 l 83 0 "},"ż":{"x_min":30,"x_max":626,"ha":656,"o":"m 30 0 l 30 121 q 272 417 249 391 q 355 510 295 444 l 53 510 l 53 679 l 615 679 l 615 551 q 365 245 391 276 q 295 171 339 214 l 295 169 l 626 169 l 626 0 l 30 0 m 445 851 q 418 784 445 812 q 354 756 392 756 q 286 784 313 756 q 259 851 259 813 q 286 920 259 892 q 355 948 314 948 q 419 920 393 948 q 445 851 445 893 "},"8":{"x_min":46,"x_max":731,"ha":776,"o":"m 207 465 q 76 662 76 533 q 166 847 76 776 q 392 918 256 918 q 615 850 535 918 q 695 686 695 782 q 565 488 695 554 l 565 483 q 686 396 642 454 q 731 260 731 337 q 635 61 731 137 q 382 -15 540 -15 q 135 58 225 -15 q 46 236 46 131 q 207 461 46 391 l 207 465 m 406 549 q 473 593 447 561 q 499 662 499 624 q 469 742 499 710 q 388 774 440 774 q 306 745 336 774 q 277 671 277 716 q 406 549 277 588 m 262 258 q 298 171 262 209 q 390 134 334 134 q 481 165 446 134 q 517 245 517 196 q 499 313 517 283 q 436 366 481 343 q 372 389 391 389 q 330 373 361 389 q 280 327 299 357 q 262 258 262 297 "},"ő":{"x_min":45,"x_max":762,"ha":807,"o":"m 762 347 q 659 82 762 180 q 401 -15 556 -15 q 145 81 245 -15 q 45 334 45 177 q 145 595 45 496 q 412 694 246 694 q 664 596 567 694 q 762 347 762 499 m 261 338 q 299 193 261 248 q 402 137 338 137 q 504 192 466 137 q 543 340 543 247 q 506 485 543 428 q 404 541 469 541 q 299 484 336 541 q 261 338 261 428 m 275 973 l 440 973 l 309 766 l 190 766 l 275 973 m 515 973 l 681 973 l 549 766 l 431 766 l 515 973 "},"ž":{"x_min":30,"x_max":626,"ha":656,"o":"m 30 0 l 30 121 q 272 417 249 391 q 354 510 295 444 l 53 510 l 53 679 l 615 679 l 615 551 q 365 245 391 276 q 295 171 339 214 l 295 169 l 626 169 l 626 0 l 30 0 m 404 761 l 264 761 l 127 973 l 261 973 l 335 851 l 407 973 l 542 973 l 404 761 "},"R":{"x_min":91,"x_max":801.390625,"ha":827,"o":"m 91 0 l 91 923 q 375 944 206 944 q 674 873 583 944 q 766 673 766 803 q 720 532 766 595 q 601 444 674 469 l 601 438 q 725 266 686 406 q 801 0 795 15 l 586 0 q 520 218 558 52 q 468 334 501 301 q 364 368 436 368 l 299 368 l 299 0 l 91 0 m 299 779 l 299 522 l 386 522 q 510 558 464 522 q 556 656 556 594 q 514 752 556 718 q 398 786 473 786 q 299 779 324 786 "},"ť":{"x_min":23,"x_max":613.28125,"ha":507,"o":"m 113 806 l 319 863 l 319 679 l 469 679 l 469 521 l 319 521 l 319 282 q 338 187 319 214 q 402 160 357 160 q 466 166 442 160 l 466 4 q 329 -15 417 -15 q 173 42 234 -15 q 113 247 113 100 l 113 521 l 23 521 l 23 679 l 113 679 l 113 806 m 492 755 l 393 755 q 464 1033 442 888 l 613 1033 q 492 755 561 870 "},"Ľ":{"x_min":91,"x_max":681.75,"ha":716,"o":"m 91 0 l 91 935 l 302 935 l 302 180 l 681 180 l 681 0 l 91 0 m 500 761 l 401 761 q 472 1039 450 894 l 621 1039 q 500 761 570 876 "},"Ż":{"x_min":34,"x_max":773,"ha":815,"o":"m 34 0 l 34 115 l 489 753 l 489 758 l 75 758 l 75 936 l 765 936 l 765 815 l 320 182 l 320 178 l 773 178 l 773 0 l 34 0 m 523 1105 q 496 1038 523 1067 q 431 1010 469 1010 q 363 1038 391 1010 q 335 1105 335 1067 q 362 1174 335 1146 q 431 1202 390 1202 q 496 1174 469 1202 q 523 1105 523 1146 "},"o":{"x_min":45,"x_max":762,"ha":807,"o":"m 762 347 q 659 82 762 180 q 401 -15 556 -15 q 145 81 245 -15 q 45 334 45 177 q 145 595 45 496 q 412 694 246 694 q 664 596 567 694 q 762 347 762 499 m 261 338 q 299 193 261 248 q 402 137 338 137 q 504 192 466 137 q 543 340 543 247 q 506 485 543 428 q 404 541 469 541 q 299 484 336 541 q 261 338 261 428 "},"5":{"x_min":59.609375,"x_max":703.421875,"ha":776,"o":"m 665 902 l 665 727 l 310 727 l 291 594 q 352 594 331 594 q 607 519 510 594 q 703 300 703 445 q 597 77 703 169 q 315 -15 491 -15 q 59 37 167 -15 l 99 199 q 305 152 195 152 q 434 188 382 152 q 487 287 487 224 q 231 437 487 437 q 105 428 180 437 l 164 902 l 665 902 "},"İ":{"x_min":91,"x_max":302,"ha":393,"o":"m 91 936 l 302 936 l 302 0 l 91 0 l 91 936 m 292 1105 q 265 1038 292 1067 q 200 1010 238 1010 q 132 1038 160 1010 q 104 1105 104 1067 q 131 1174 104 1146 q 200 1202 159 1202 q 265 1174 238 1202 q 292 1105 292 1146 "},"Ě":{"x_min":91,"x_max":695.359375,"ha":748,"o":"m 654 568 l 654 394 l 302 394 l 302 175 l 695 175 l 695 0 l 91 0 l 91 936 l 676 936 l 676 761 l 302 761 l 302 568 l 654 568 m 467 1006 l 313 1006 l 172 1181 l 316 1181 l 391 1090 l 461 1181 l 607 1181 l 467 1006 "},"7":{"x_min":68,"x_max":710,"ha":775,"o":"m 68 902 l 710 902 l 710 768 l 336 0 l 110 0 l 486 724 l 486 727 l 68 727 l 68 902 "},"K":{"x_min":91,"x_max":863.875,"ha":860,"o":"m 91 0 l 91 936 l 299 936 l 299 523 q 375 635 341 586 l 584 936 l 846 936 l 531 538 l 863 0 l 617 0 l 380 405 l 299 305 l 299 0 l 91 0 "},",":{"x_min":0,"x_max":314.421875,"ha":358,"o":"m 141 -151 l 0 -163 q 100 240 68 33 l 314 240 q 141 -151 242 15 "},"d":{"x_min":46,"x_max":752,"ha":834,"o":"m 538 988 l 752 988 l 752 203 q 752 0 752 91 l 563 0 l 563 103 l 556 103 q 338 -15 486 -15 q 130 82 215 -15 q 46 333 46 179 q 135 595 46 496 q 353 694 224 694 q 535 617 481 694 l 538 617 l 538 988 m 538 308 l 538 387 q 502 489 538 449 q 409 530 466 530 q 300 477 340 530 q 260 340 260 425 q 300 205 260 255 q 408 156 340 156 q 497 192 456 156 q 538 308 538 228 "},"E":{"x_min":91,"x_max":695.359375,"ha":748,"o":"m 654 568 l 654 394 l 302 394 l 302 175 l 695 175 l 695 0 l 91 0 l 91 936 l 676 936 l 676 761 l 302 761 l 302 568 l 654 568 "},"Y":{"x_min":16.546875,"x_max":841.421875,"ha":852,"o":"m 527 0 l 316 0 l 316 386 l 16 936 l 258 936 q 431 533 425 549 q 601 936 463 619 l 841 936 l 527 394 l 527 0 "},"\"":{"x_min":49,"x_max":502.25,"ha":551,"o":"m 49 962 l 236 962 l 204 584 l 80 584 l 49 962 m 314 962 l 502 962 l 470 584 l 347 584 l 314 962 "},"‹":{"x_min":38.109375,"x_max":343,"ha":376,"o":"m 343 617 l 178 351 l 343 85 l 197 85 l 38 351 l 197 617 l 343 617 "},"„":{"x_min":23.140625,"x_max":589.359375,"ha":644,"o":"m 152 -131 l 23 -142 q 118 241 88 43 l 317 241 q 152 -131 247 27 m 424 -131 l 295 -142 q 390 241 360 43 l 589 241 q 424 -131 524 34 "},"ľ":{"x_min":86,"x_max":582.84375,"ha":531,"o":"m 86 0 l 86 988 l 297 988 l 297 0 l 86 0 m 461 715 l 362 715 q 433 993 411 848 l 582 993 q 461 715 531 830 "},"Į":{"x_min":64,"x_max":310.15625,"ha":393,"o":"m 91 936 l 302 936 l 302 0 q 208 -68 243 -29 q 173 -141 173 -108 q 188 -179 173 -164 q 227 -194 203 -194 q 296 -178 258 -194 l 310 -255 q 193 -280 263 -280 q 99 -249 134 -280 q 64 -164 64 -218 q 102 -70 64 -118 q 194 0 141 -22 l 91 0 l 91 936 "},"ķ":{"x_min":84,"x_max":779.5625,"ha":759,"o":"m 295 989 l 295 393 l 297 393 q 488 679 315 429 l 742 679 l 495 404 l 779 0 l 518 0 l 349 279 l 295 211 l 295 1 l 84 1 l 84 989 l 295 989 m 331 -341 l 232 -341 q 303 -63 281 -207 l 452 -63 q 331 -341 401 -225 "},"ė":{"x_min":45.390625,"x_max":696,"ha":735,"o":"m 687 271 l 245 271 q 305 176 251 210 q 440 143 359 143 q 630 172 543 143 l 657 29 q 410 -15 554 -15 q 142 77 239 -15 q 45 331 45 170 q 138 586 45 479 q 389 694 231 694 q 615 598 535 694 q 696 352 696 502 q 687 271 696 303 m 244 418 l 500 418 q 472 508 500 465 q 378 552 444 552 q 288 515 324 552 q 244 418 253 478 m 482 851 q 455 784 482 812 q 391 756 429 756 q 323 784 350 756 q 296 851 296 813 q 323 920 296 892 q 392 948 351 948 q 456 920 430 948 q 482 851 482 893 "},"Ţ":{"x_min":20,"x_max":750,"ha":770,"o":"m 277 0 l 277 757 l 20 757 l 20 936 l 750 936 l 750 757 l 488 757 l 488 0 l 277 0 m 336 -341 l 237 -341 q 308 -63 286 -207 l 458 -63 q 336 -341 406 -225 "},"|":{"x_min":125,"x_max":271,"ha":395,"o":"m 125 1041 l 271 1041 l 271 -347 l 125 -347 l 125 1041 "},"ą":{"x_min":41,"x_max":671.0625,"ha":736,"o":"m 652 401 l 652 165 q 662 0 652 62 q 569 -68 604 -28 q 534 -141 534 -108 q 549 -179 534 -164 q 588 -194 565 -194 q 656 -178 619 -194 l 671 -255 q 554 -280 624 -280 q 460 -249 495 -280 q 425 -164 425 -218 q 463 -70 425 -117 q 555 0 501 -23 l 473 0 l 461 68 l 455 68 q 261 -15 387 -15 q 102 45 163 -15 q 41 193 41 106 q 144 386 41 319 q 442 454 248 454 l 442 462 q 317 547 442 547 q 128 495 215 547 l 88 631 q 353 694 199 694 q 576 618 500 694 q 652 401 652 542 m 449 251 l 449 321 q 249 215 249 321 q 271 156 249 177 q 333 135 293 135 q 412 165 376 135 q 449 251 449 196 "},"b":{"x_min":82,"x_max":793,"ha":838,"o":"m 82 204 l 82 988 l 296 988 l 296 596 l 298 596 q 508 694 368 694 q 712 599 632 694 q 793 351 793 504 q 752 162 793 246 q 638 31 712 77 q 478 -15 564 -15 q 270 96 336 -15 l 267 96 l 257 0 l 82 0 q 82 204 82 91 m 296 383 l 296 294 q 337 189 296 225 q 429 153 379 153 q 538 203 498 153 q 579 342 579 254 q 539 478 579 427 q 429 530 499 530 q 335 489 374 530 q 296 383 296 448 "},"q":{"x_min":46,"x_max":752,"ha":834,"o":"m 539 -275 l 539 89 l 536 89 q 330 -15 468 -15 q 129 81 212 -15 q 46 330 46 177 q 86 521 46 439 q 197 649 126 604 q 348 694 268 694 q 545 598 481 694 l 545 679 l 752 679 q 752 476 752 513 l 752 -275 l 539 -275 m 539 298 l 539 390 q 499 491 539 454 q 409 529 460 529 q 300 476 340 529 q 260 338 260 424 q 299 203 260 254 q 406 153 339 153 q 500 192 462 153 q 539 298 539 232 "},"z":{"x_min":30,"x_max":626,"ha":656,"o":"m 30 0 l 30 121 q 272 417 249 391 q 354 510 295 444 l 53 510 l 53 679 l 615 679 l 615 551 q 365 245 391 276 q 295 171 339 214 l 295 169 l 626 169 l 626 0 l 30 0 "},"™":{"x_min":23,"x_max":1133,"ha":1215,"o":"m 23 935 l 471 935 l 471 823 l 313 823 l 313 383 l 178 383 l 178 823 l 23 823 l 23 935 m 1133 383 l 1010 383 q 1010 837 1010 644 l 999 837 q 867 393 973 727 l 762 393 q 675 713 686 666 l 646 837 l 635 837 q 635 383 635 651 l 522 383 l 522 935 l 725 935 q 827 565 796 694 l 830 565 q 875 734 868 712 l 940 935 l 1133 935 l 1133 383 "},"Ř":{"x_min":91,"x_max":801.390625,"ha":827,"o":"m 91 0 l 91 923 q 375 944 206 944 q 674 873 583 944 q 766 673 766 803 q 720 532 766 595 q 601 444 674 469 l 601 438 q 725 266 686 406 q 801 0 795 15 l 586 0 q 520 218 558 52 q 468 334 501 301 q 364 368 436 368 l 299 368 l 299 0 l 91 0 m 299 779 l 299 522 l 386 522 q 510 558 464 522 q 556 656 556 594 q 514 752 556 718 q 398 786 473 786 q 299 779 324 786 m 483 1006 l 329 1006 l 188 1181 l 332 1181 l 407 1089 l 477 1181 l 623 1181 l 483 1006 "},"Ň":{"x_min":91,"x_max":877,"ha":968,"o":"m 281 0 l 91 0 l 91 936 l 341 936 l 562 553 q 695 269 626 441 l 698 269 q 682 655 682 416 l 682 936 l 877 936 l 877 0 l 653 0 q 374 498 419 412 q 281 697 330 583 l 281 697 q 281 290 281 519 l 281 0 m 561 1006 l 407 1006 l 266 1181 l 410 1181 l 485 1089 l 556 1181 l 701 1181 l 561 1006 "},"~":{"x_min":56,"x_max":756,"ha":812,"o":"m 191 264 l 56 264 q 246 527 56 527 q 319 516 282 527 q 437 461 357 506 q 570 406 537 406 q 621 519 621 406 l 756 519 q 744 390 756 436 q 707 313 733 345 q 648 268 682 282 q 572 255 613 255 q 493 267 533 255 q 380 321 453 279 q 249 378 280 378 q 191 264 191 378 "},"[":{"x_min":95,"x_max":376.671875,"ha":437,"o":"m 376 -155 l 95 -155 l 95 951 l 376 951 l 376 834 l 246 834 l 246 -38 l 376 -38 l 376 -155 "},"L":{"x_min":91,"x_max":681.75,"ha":716,"o":"m 91 0 l 91 935 l 302 935 l 302 180 l 681 180 l 681 0 l 91 0 "},"ď":{"x_min":46,"x_max":1035.109375,"ha":983,"o":"m 538 988 l 752 988 l 752 203 q 752 0 752 91 l 563 0 l 563 103 l 556 103 q 338 -15 486 -15 q 130 82 215 -15 q 46 333 46 179 q 135 595 46 496 q 353 694 224 694 q 535 617 481 694 l 538 617 l 538 988 m 538 308 l 538 387 q 502 489 538 449 q 409 530 466 530 q 300 477 340 530 q 260 340 260 425 q 300 205 260 255 q 408 156 340 156 q 497 192 456 156 q 538 308 538 228 m 913 715 l 814 715 q 885 993 863 848 l 1035 993 q 913 715 983 830 "}," ":{"x_min":0,"x_max":0,"ha":282},"%":{"x_min":38,"x_max":1194,"ha":1233,"o":"m 38 632 q 108 836 38 756 q 292 917 178 917 q 472 843 405 917 q 539 649 539 770 q 465 437 539 514 q 285 361 391 361 q 108 435 178 361 q 38 632 38 510 m 382 639 q 359 755 382 711 q 290 799 337 799 q 221 755 246 799 q 197 638 197 712 q 221 523 197 567 q 290 479 245 479 q 382 639 382 479 m 414 -15 l 301 -15 l 813 916 l 926 916 l 414 -15 m 693 259 q 763 463 693 383 q 947 543 834 543 q 1127 469 1060 543 q 1194 274 1194 396 q 1119 63 1194 140 q 940 -14 1045 -14 q 763 61 833 -14 q 693 259 693 136 m 1037 265 q 1014 381 1037 337 q 945 425 992 425 q 876 381 901 425 q 852 263 852 338 q 877 147 852 190 q 945 104 902 104 q 1037 265 1037 104 "},"P":{"x_min":91,"x_max":766,"ha":810,"o":"m 91 0 l 91 924 q 382 944 220 944 q 674 860 583 944 q 766 649 766 777 q 661 410 766 493 q 373 328 557 328 q 299 333 337 328 l 299 0 l 91 0 m 299 775 l 299 498 q 372 493 321 493 q 508 533 458 493 q 558 644 558 573 q 513 745 558 709 q 388 782 469 782 q 299 775 324 782 "},"_":{"x_min":0,"x_max":681,"ha":681,"o":"m 0 -104 l 681 -104 l 681 -173 l 0 -173 l 0 -104 "},"Ŕ":{"x_min":91,"x_max":801.390625,"ha":827,"o":"m 91 0 l 91 923 q 375 944 206 944 q 674 873 583 944 q 766 673 766 803 q 720 532 766 595 q 601 444 674 469 l 601 438 q 725 266 686 406 q 801 0 795 15 l 586 0 q 520 218 558 52 q 468 334 501 301 q 364 368 436 368 l 299 368 l 299 0 l 91 0 m 299 779 l 299 522 l 386 522 q 510 558 464 522 q 556 656 556 594 q 514 752 556 718 q 398 786 473 786 q 299 779 324 786 m 425 1181 l 646 1181 l 477 1006 l 308 1006 l 425 1181 "},"+":{"x_min":56,"x_max":757,"ha":811,"o":"m 339 738 l 474 738 l 474 436 l 757 436 l 757 306 l 474 306 l 474 0 l 339 0 l 339 306 l 56 306 l 56 436 l 339 436 l 339 738 "},"‚":{"x_min":24.5,"x_max":318.5,"ha":365,"o":"m 153 -131 l 24 -142 q 119 241 89 43 l 318 241 q 153 -131 253 34 "},"ğ":{"x_min":46,"x_max":735,"ha":818,"o":"m 735 477 l 735 101 q 644 -193 735 -96 q 353 -291 553 -291 q 104 -236 203 -291 l 146 -74 q 346 -127 240 -127 q 477 -80 430 -127 q 525 51 525 -34 l 525 96 l 522 96 q 335 6 456 6 q 128 98 210 6 q 46 336 46 190 q 135 593 46 492 q 356 694 225 694 q 545 597 485 694 l 548 597 l 555 679 l 735 679 q 735 477 735 598 m 520 308 l 520 398 q 487 495 520 457 q 399 533 454 533 q 299 481 339 533 q 260 341 260 429 q 297 213 260 264 q 399 163 334 163 q 482 195 443 163 q 520 308 520 227 m 232 959 l 332 959 q 409 875 345 875 q 488 959 480 875 l 589 959 q 541 825 589 872 q 409 779 494 779 q 278 825 325 779 q 232 959 232 872 "},"Ū":{"x_min":91,"x_max":865,"ha":956,"o":"m 91 935 l 302 935 l 302 405 q 346 218 302 283 q 475 154 391 154 q 654 405 654 154 l 654 935 l 865 935 l 865 416 q 763 94 865 204 q 469 -15 662 -15 q 91 419 91 -15 l 91 935 m 302 1151 l 659 1151 l 659 1039 l 302 1039 l 302 1151 "},"'":{"x_min":49,"x_max":235.46875,"ha":284,"o":"m 49 962 l 235 962 l 204 584 l 80 584 l 49 962 "},"Š":{"x_min":57.109375,"x_max":704,"ha":758,"o":"m 57 44 l 100 221 q 340 160 218 160 q 449 187 410 160 q 489 261 489 214 q 453 331 489 303 q 330 390 418 360 q 68 669 68 478 q 164 871 68 792 q 422 951 261 951 q 667 902 562 951 l 619 731 q 419 777 523 777 q 319 752 355 777 q 283 686 283 727 q 313 624 283 650 q 458 556 343 598 q 645 443 586 510 q 704 274 704 375 q 604 65 704 145 q 326 -15 505 -15 q 57 44 174 -15 m 474 1006 l 320 1006 l 178 1181 l 323 1181 l 398 1089 l 469 1181 l 614 1181 l 474 1006 "},"Œ":{"x_min":49,"x_max":1266,"ha":1319,"o":"m 1266 175 l 1266 0 l 729 0 q 641 -6 696 0 q 523 -15 576 -15 q 175 117 302 -15 q 49 459 49 250 q 180 817 49 683 q 526 951 312 951 q 656 944 597 951 q 746 936 727 936 l 1247 936 l 1247 761 l 872 761 l 872 568 l 1224 568 l 1224 394 l 872 394 l 872 175 l 1266 175 m 661 170 l 661 762 q 548 782 618 782 q 349 696 427 782 q 272 466 272 610 q 350 239 272 325 q 563 154 429 154 q 661 170 622 154 "},"Ą":{"x_min":25.53125,"x_max":899.484375,"ha":924,"o":"m 587 245 l 312 245 l 244 0 l 25 0 l 315 935 l 593 935 l 891 0 q 797 -68 832 -29 q 762 -141 762 -108 q 777 -179 762 -164 q 816 -194 792 -194 q 885 -178 847 -194 l 899 -255 q 782 -280 852 -280 q 688 -249 723 -280 q 653 -164 653 -218 q 691 -70 653 -118 q 783 0 730 -22 l 662 0 l 587 245 m 344 403 l 555 403 q 447 779 471 677 l 401 601 l 344 403 "},"T":{"x_min":20,"x_max":750,"ha":770,"o":"m 277 0 l 277 756 l 20 756 l 20 935 l 750 935 l 750 756 l 488 756 l 488 0 l 277 0 "},"š":{"x_min":46.3125,"x_max":564,"ha":609,"o":"m 46 33 l 84 186 q 174 149 121 164 q 269 135 228 135 q 361 190 361 135 q 338 233 361 218 q 260 266 316 248 q 64 469 64 328 q 140 630 64 566 q 341 694 217 694 q 535 653 450 694 l 498 506 q 348 545 419 545 q 267 490 267 545 q 291 450 267 466 q 378 413 316 433 q 519 332 474 382 q 564 205 564 282 q 486 44 564 104 q 269 -15 408 -15 q 46 33 141 -15 m 378 761 l 238 761 l 100 973 l 235 973 l 309 851 l 381 973 l 516 973 l 378 761 "},"j":{"x_min":-54.15625,"x_max":338,"ha":407,"o":"m -33 -300 l -54 -131 q 47 -108 7 -131 q 101 -33 87 -86 q 115 138 115 18 l 115 678 l 326 678 l 326 86 q 229 -216 326 -132 q -33 -300 133 -300 m 338 879 q 305 799 338 831 q 219 767 273 767 q 133 798 166 767 q 101 879 101 830 q 134 960 101 928 q 219 992 167 992 q 305 960 272 992 q 338 879 338 928 "},"ş":{"x_min":46.3125,"x_max":564,"ha":609,"o":"m 46 33 l 84 186 q 174 149 121 164 q 269 135 228 135 q 361 190 361 135 q 338 233 361 218 q 260 266 316 248 q 64 469 64 328 q 140 631 64 567 q 341 695 217 695 q 535 654 450 695 l 498 507 q 348 546 419 546 q 267 491 267 546 q 291 450 267 467 q 378 414 316 434 q 519 333 474 383 q 564 205 564 282 q 486 45 564 105 q 269 -15 408 -15 q 46 33 141 -15 m 257 -341 l 158 -341 q 228 -63 207 -207 l 378 -63 q 257 -341 326 -225 "},"1":{"x_min":120.75,"x_max":532,"ha":776,"o":"m 329 0 l 329 712 l 326 712 l 156 630 l 120 791 l 358 902 l 532 902 l 532 0 l 329 0 "},"›":{"x_min":32.671875,"x_max":337.5625,"ha":376,"o":"m 197 351 l 32 617 l 176 617 l 337 351 l 176 85 l 32 85 l 197 351 "},"ı":{"x_min":86,"x_max":297,"ha":381,"o":"m 297 0 l 86 0 l 86 679 l 297 679 l 297 0 "},"Ć":{"x_min":49,"x_max":803.203125,"ha":843,"o":"m 759 194 l 792 28 q 545 -15 698 -15 q 181 113 313 -15 q 49 455 49 242 q 193 815 49 680 q 564 951 337 951 q 803 907 718 951 l 759 738 q 574 776 674 776 q 353 694 436 776 q 271 468 271 612 q 352 245 271 327 q 575 163 433 163 q 759 194 678 163 m 529 1181 l 750 1181 l 581 1006 l 412 1006 l 529 1181 "},"<":{"x_min":78,"x_max":733,"ha":812,"o":"m 78 308 l 78 430 l 733 738 l 733 589 l 236 370 l 236 367 l 733 148 l 733 0 l 78 308 "},"ů":{"x_min":83,"x_max":732,"ha":815,"o":"m 732 679 l 732 219 q 732 0 732 110 l 552 0 l 542 98 l 537 98 q 323 -15 466 -15 q 146 60 209 -15 q 83 280 83 136 l 83 678 l 294 678 l 294 316 q 402 157 294 157 q 483 191 448 157 q 518 277 518 225 l 518 679 l 732 679 m 250 882 q 293 983 250 944 q 409 1023 336 1023 q 524 984 482 1023 q 566 882 566 946 q 522 785 566 823 q 409 747 479 747 q 293 785 337 747 q 250 882 250 823 m 472 884 q 454 932 472 913 q 409 952 437 952 q 363 932 380 952 q 347 882 347 912 q 364 837 347 856 q 408 818 381 818 q 454 836 436 818 q 472 884 472 855 "},"t":{"x_min":23,"x_max":469,"ha":507,"o":"m 113 806 l 319 863 l 319 679 l 469 679 l 469 521 l 319 521 l 319 282 q 338 187 319 214 q 402 160 357 160 q 466 166 442 160 l 466 4 q 329 -15 417 -15 q 173 42 234 -15 q 113 247 113 100 l 113 521 l 23 521 l 23 679 l 113 679 l 113 806 "},"Ō":{"x_min":49,"x_max":965,"ha":1014,"o":"m 965 476 q 836 119 965 253 q 499 -15 708 -15 q 172 118 296 -15 q 49 461 49 252 q 178 812 49 674 q 511 951 307 951 q 841 817 717 951 q 965 476 965 684 m 271 466 q 335 241 271 329 q 504 154 400 154 q 676 240 612 154 q 740 469 740 327 q 675 693 740 605 q 506 782 611 782 q 335 693 400 782 q 271 466 271 604 m 331 1151 l 688 1151 l 688 1039 l 331 1039 l 331 1151 "},"W":{"x_min":20.421875,"x_max":1223.640625,"ha":1241,"o":"m 477 0 l 245 0 l 20 936 l 246 936 q 375 222 341 437 l 378 222 q 518 936 396 357 l 748 936 q 872 228 856 368 l 875 228 q 1008 936 886 334 l 1223 936 l 978 0 l 749 0 q 647 524 658 460 q 624 700 636 588 l 622 700 q 568 413 597 543 l 477 0 "},"Ğ":{"x_min":49,"x_max":887,"ha":961,"o":"m 887 537 l 887 44 q 567 -10 720 -10 q 178 120 308 -10 q 49 456 49 250 q 197 812 49 679 q 589 945 346 945 q 855 897 755 945 l 811 728 q 585 770 718 770 q 356 689 441 770 q 271 468 271 609 q 354 245 271 329 q 574 162 437 162 q 683 175 651 162 l 683 370 l 534 370 l 534 537 l 887 537 m 343 1176 l 450 1176 q 534 1102 459 1102 q 614 1176 614 1102 l 726 1176 q 536 1006 726 1006 q 393 1050 444 1006 q 343 1176 343 1094 "},">":{"x_min":79,"x_max":734,"ha":812,"o":"m 734 433 l 734 305 l 79 0 l 79 147 l 583 367 l 583 370 l 79 591 l 79 738 l 734 433 "},"v":{"x_min":13.296875,"x_max":730.609375,"ha":743,"o":"m 13 679 l 241 679 q 374 200 374 240 l 380 200 q 416 353 393 269 l 507 679 l 730 679 l 474 0 l 262 0 l 13 679 "},"ī":{"x_min":18,"x_max":365,"ha":381,"o":"m 297 0 l 86 0 l 86 679 l 297 679 l 297 0 m 18 918 l 365 918 l 365 808 l 18 808 l 18 918 "},"Ź":{"x_min":34,"x_max":773,"ha":815,"o":"m 34 0 l 34 115 l 489 753 l 489 758 l 75 758 l 75 936 l 765 936 l 765 815 l 320 182 l 320 178 l 773 178 l 773 0 l 34 0 m 420 1181 l 641 1181 l 472 1006 l 303 1006 l 420 1181 "},"Ų":{"x_min":91,"x_max":865,"ha":956,"o":"m 91 935 l 302 935 l 302 405 q 346 218 302 283 q 475 154 391 154 q 654 405 654 154 l 654 935 l 865 935 l 865 416 q 592 -1 865 64 q 501 -69 538 -28 q 465 -143 465 -110 q 480 -181 465 -166 q 519 -196 495 -196 q 588 -180 550 -196 l 602 -257 q 485 -282 555 -282 q 391 -251 426 -282 q 356 -166 356 -220 q 385 -84 356 -126 q 462 -13 415 -42 q 91 417 91 -13 l 91 935 "},"&":{"x_min":44,"x_max":938.453125,"ha":947,"o":"m 938 0 l 693 0 q 630 67 662 29 q 372 -15 524 -15 q 131 60 218 -15 q 44 249 44 136 q 222 519 44 426 l 222 524 q 151 702 151 605 q 228 877 151 803 q 433 951 305 951 q 616 890 544 951 q 688 731 688 829 q 504 491 688 582 l 503 487 l 658 313 q 741 544 716 406 l 928 544 q 772 185 888 312 q 938 0 880 62 m 407 589 q 486 657 462 626 q 510 726 510 687 q 487 790 510 763 q 428 818 464 818 q 365 790 389 818 q 342 723 342 763 q 407 589 342 658 m 318 416 q 244 285 244 361 q 287 181 244 223 q 400 140 330 140 q 530 187 479 140 q 318 416 463 253 "},"Ď":{"x_min":91,"x_max":931,"ha":980,"o":"m 91 3 l 91 922 q 382 943 227 943 q 803 817 675 943 q 931 490 931 692 q 785 121 931 252 q 337 -10 640 -10 q 91 3 197 -10 m 302 769 l 302 161 q 378 157 319 157 q 621 241 535 157 q 708 482 708 325 q 629 702 708 626 q 402 778 550 778 q 302 769 340 778 m 526 1006 l 372 1006 l 230 1180 l 374 1180 l 449 1089 l 520 1181 l 666 1181 l 526 1006 "},"I":{"x_min":91,"x_max":302,"ha":393,"o":"m 91 936 l 302 936 l 302 0 l 91 0 l 91 936 "},"G":{"x_min":49,"x_max":887,"ha":961,"o":"m 887 537 l 887 44 q 567 -10 720 -10 q 178 120 308 -10 q 49 456 49 250 q 197 812 49 679 q 589 945 346 945 q 855 897 755 945 l 810 728 q 585 770 717 770 q 356 689 441 770 q 271 468 271 609 q 354 245 271 329 q 574 162 437 162 q 683 175 651 162 l 683 370 l 534 370 l 534 537 l 887 537 "},"`":{"x_min":2.71875,"x_max":317.140625,"ha":408,"o":"m 2 973 l 197 973 l 317 761 l 172 761 l 2 973 "},"Ĺ":{"x_min":91,"x_max":681.75,"ha":716,"o":"m 91 0 l 91 935 l 302 935 l 302 180 l 681 180 l 681 0 l 91 0 m 216 1181 l 436 1181 l 267 1006 l 99 1006 l 216 1181 "},"r":{"x_min":83,"x_max":503.875,"ha":531,"o":"m 83 0 l 83 452 q 83 679 83 605 l 265 679 l 265 549 l 273 549 q 349 657 298 620 q 458 694 401 694 q 503 689 490 694 l 503 489 q 446 496 477 496 q 342 462 388 496 q 296 343 296 428 l 296 0 l 83 0 "},"Č":{"x_min":49,"x_max":803.203125,"ha":843,"o":"m 759 194 l 792 28 q 545 -15 698 -15 q 181 113 313 -15 q 49 455 49 242 q 193 815 49 680 q 564 951 337 951 q 803 907 718 951 l 759 738 q 574 776 674 776 q 353 694 436 776 q 271 468 271 612 q 352 245 271 327 q 575 163 433 163 q 759 194 678 163 m 614 1006 l 460 1006 l 319 1181 l 463 1181 l 538 1089 l 609 1181 l 754 1181 l 614 1006 "},"x":{"x_min":4.078125,"x_max":721.390625,"ha":727,"o":"m 9 679 l 245 679 q 370 466 340 525 l 374 466 q 488 679 393 509 l 718 679 l 491 356 l 721 0 l 481 0 q 359 225 381 172 l 355 225 q 236 0 337 184 l 4 0 l 238 346 l 9 679 "},"Ń":{"x_min":91,"x_max":877,"ha":968,"o":"m 281 0 l 91 0 l 91 936 l 341 936 l 562 553 q 695 269 626 441 l 698 269 q 682 655 682 416 l 682 936 l 877 936 l 877 0 l 653 0 q 374 498 419 412 q 281 697 330 583 l 281 697 q 281 290 281 519 l 281 0 m 496 1181 l 717 1181 l 548 1006 l 379 1006 l 496 1181 "},"ź":{"x_min":30,"x_max":626,"ha":656,"o":"m 30 0 l 30 121 q 272 417 249 391 q 354 510 295 444 l 53 510 l 53 679 l 615 679 l 615 551 q 365 245 391 276 q 295 171 339 214 l 295 169 l 626 169 l 626 0 l 30 0 m 368 973 l 563 973 l 393 761 l 248 761 l 368 973 "},"ű":{"x_min":83,"x_max":732,"ha":815,"o":"m 732 679 l 732 219 q 732 0 732 110 l 552 0 l 542 98 l 537 98 q 323 -15 466 -15 q 146 60 209 -15 q 83 280 83 136 l 83 678 l 294 678 l 294 316 q 402 157 294 157 q 483 191 448 157 q 518 277 518 225 l 518 679 l 732 679 m 279 973 l 444 973 l 313 766 l 194 766 l 279 973 m 519 973 l 685 973 l 553 766 l 435 766 l 519 973 "},"h":{"x_min":86,"x_max":734,"ha":817,"o":"m 86 0 l 86 988 l 297 988 l 297 595 l 299 595 q 382 666 330 638 q 493 694 434 694 q 669 615 604 694 q 734 392 734 537 l 734 0 l 523 0 l 523 368 q 411 521 523 521 q 331 488 365 521 q 297 400 297 456 l 297 0 l 86 0 "},".":{"x_min":68,"x_max":317,"ha":358,"o":"m 317 114 q 281 21 317 57 q 191 -15 246 -15 q 102 21 137 -15 q 68 114 68 57 q 103 206 68 170 q 193 243 138 243 q 282 206 248 243 q 317 114 317 170 "},"ń":{"x_min":83,"x_max":734,"ha":817,"o":"m 83 0 l 83 460 q 83 679 83 561 l 262 679 l 272 583 l 277 583 q 488 694 352 694 q 667 616 601 694 q 734 398 734 539 l 734 0 l 523 0 l 523 370 q 412 522 523 522 q 332 487 367 522 q 297 388 297 452 l 297 0 l 83 0 m 422 973 l 616 973 l 446 761 l 302 761 l 422 973 "},";":{"x_min":1.140625,"x_max":324,"ha":358,"o":"m 324 559 q 289 468 324 504 q 200 432 255 432 q 110 468 145 432 q 76 559 76 504 q 110 652 76 616 q 200 689 145 689 q 289 652 255 689 q 324 559 324 616 m 141 -152 l 1 -164 q 101 239 69 32 l 314 239 q 141 -152 242 14 "},"f":{"x_min":20,"x_max":486,"ha":473,"o":"m 318 0 l 107 0 l 107 521 l 20 521 l 20 679 l 107 679 l 107 704 q 140 861 107 789 q 237 968 173 933 q 376 1004 301 1004 q 486 990 430 1004 l 486 825 q 414 835 451 835 q 342 802 367 835 q 317 713 317 770 l 317 679 l 451 679 l 451 521 l 318 521 l 318 0 "},"“":{"x_min":38.109375,"x_max":604.328125,"ha":636,"o":"m 475 950 l 604 961 q 509 578 539 775 l 310 578 q 475 950 379 791 m 202 950 l 332 961 q 236 578 266 775 l 38 578 q 202 950 102 784 "},"A":{"x_min":25.859375,"x_max":891.53125,"ha":924,"o":"m 588 244 l 313 244 l 245 0 l 25 0 l 315 934 l 593 934 l 891 0 l 662 0 l 588 244 m 344 402 l 555 402 q 447 778 472 676 l 445 778 l 401 600 l 344 402 "},"6":{"x_min":42,"x_max":738,"ha":776,"o":"m 638 915 l 638 748 q 530 748 573 748 q 435 730 487 748 q 347 682 383 712 q 288 615 310 652 q 256 535 266 578 l 260 535 q 455 606 333 606 q 657 525 577 606 q 738 311 738 444 q 642 79 738 173 q 402 -15 546 -15 q 138 95 234 -15 q 42 380 42 205 q 78 594 42 495 q 178 759 114 693 q 321 862 241 826 q 501 910 402 899 q 638 915 539 915 m 250 329 q 288 198 250 253 q 399 143 327 143 q 489 186 455 143 q 524 298 524 229 q 487 410 524 367 q 386 454 450 454 q 289 414 328 454 q 250 329 250 374 "},"‘":{"x_min":39.46875,"x_max":333.46875,"ha":365,"o":"m 204 950 l 333 961 q 238 578 268 775 l 39 578 q 204 950 104 784 "},"O":{"x_min":49,"x_max":965,"ha":1014,"o":"m 965 476 q 836 119 965 253 q 499 -15 708 -15 q 172 118 296 -15 q 49 461 49 252 q 178 812 49 674 q 511 951 307 951 q 841 817 717 951 q 965 476 965 684 m 271 466 q 335 241 271 329 q 504 154 400 154 q 676 240 612 154 q 740 469 740 327 q 675 693 740 605 q 506 782 611 782 q 335 693 400 782 q 271 466 271 604 "},"n":{"x_min":83,"x_max":734,"ha":817,"o":"m 83 0 l 83 460 q 83 679 83 561 l 262 679 l 272 583 l 277 583 q 488 694 352 694 q 667 616 601 694 q 734 398 734 539 l 734 0 l 523 0 l 523 370 q 412 522 523 522 q 332 487 367 522 q 297 388 297 452 l 297 0 l 83 0 "},"Đ":{"x_min":3,"x_max":943,"ha":992,"o":"m 3 391 l 3 560 l 102 560 l 102 925 q 393 946 238 946 q 719 886 605 946 q 888 726 833 826 q 943 492 943 625 q 797 118 943 251 q 348 -14 652 -14 q 102 0 208 -14 l 102 391 l 3 391 m 505 560 l 505 391 l 313 391 l 313 157 q 390 153 330 153 q 635 237 550 153 q 720 484 720 322 q 641 705 720 629 q 413 781 562 781 q 313 772 351 781 l 313 560 l 505 560 "},"3":{"x_min":54.546875,"x_max":697,"ha":776,"o":"m 54 51 l 98 210 q 313 154 210 154 q 434 186 390 154 q 478 272 478 218 q 427 365 478 331 q 298 400 376 400 l 205 400 l 205 554 l 294 554 q 406 581 360 554 q 452 656 452 608 q 416 724 452 699 q 318 750 381 750 q 125 693 219 750 l 80 847 q 365 918 197 918 q 584 854 502 918 q 666 691 666 790 q 501 481 666 540 l 501 479 q 643 403 590 463 q 697 261 697 343 q 596 62 697 139 q 328 -15 495 -15 q 54 51 162 -15 "},"ģ":{"x_min":46,"x_max":735,"ha":818,"o":"m 735 477 l 735 101 q 644 -193 735 -96 q 353 -291 553 -291 q 104 -236 203 -291 l 146 -74 q 346 -127 240 -127 q 477 -80 430 -127 q 525 51 525 -34 l 525 96 l 522 96 q 335 6 456 6 q 128 98 210 6 q 46 336 46 190 q 135 593 46 492 q 356 694 225 694 q 545 597 485 694 l 548 597 l 555 679 l 735 679 q 735 477 735 598 m 520 308 l 520 398 q 487 495 520 457 q 399 533 454 533 q 299 481 339 533 q 260 341 260 429 q 297 213 260 264 q 399 163 334 163 q 482 195 443 163 q 520 308 520 227 m 421 1051 l 520 1051 q 450 773 472 917 l 300 773 q 421 1051 352 935 "},"9":{"x_min":42,"x_max":728,"ha":776,"o":"m 125 -12 l 125 153 q 164 151 144 151 q 513 375 455 151 l 510 376 q 325 310 447 310 q 123 388 204 310 q 42 593 42 467 q 139 823 42 728 q 383 918 237 918 q 636 810 544 918 q 728 527 728 702 q 692 301 728 400 q 595 136 657 202 q 450 36 533 71 q 266 -8 367 1 q 125 -12 233 -12 m 513 570 q 478 708 513 656 q 378 761 443 761 q 287 717 323 761 q 252 605 252 673 q 287 502 252 543 q 382 462 322 462 q 454 478 423 462 q 499 516 485 495 q 513 570 513 536 "},"l":{"x_min":86,"x_max":297,"ha":381,"o":"m 86 0 l 86 988 l 297 988 l 297 0 l 86 0 "},"4":{"x_min":34,"x_max":743,"ha":776,"o":"m 636 0 l 436 0 l 436 217 l 34 217 l 34 354 l 373 902 l 635 902 l 635 375 l 743 375 l 743 217 l 636 217 l 636 0 m 231 375 l 438 375 l 438 576 q 438 747 438 629 l 437 747 q 352 576 366 599 l 231 375 "},"p":{"x_min":82,"x_max":791,"ha":837,"o":"m 82 -275 l 82 449 q 82 679 82 553 l 263 679 l 272 581 q 506 694 355 694 q 707 598 624 694 q 791 349 791 502 q 699 82 791 181 q 478 -16 608 -16 q 371 5 420 -16 q 298 64 323 26 l 296 64 l 296 -275 l 82 -275 m 296 378 l 296 295 q 310 221 296 251 q 357 169 325 191 q 427 148 388 148 q 536 199 496 148 q 577 338 577 250 q 537 475 577 423 q 431 527 498 527 q 336 484 376 527 q 296 378 296 442 "},"‡":{"x_min":47.171875,"x_max":679.84375,"ha":727,"o":"m 276 935 l 450 935 l 450 686 l 679 686 l 679 540 l 443 540 l 443 338 l 679 338 l 679 192 l 450 192 l 450 -68 l 276 -68 l 276 192 l 47 192 l 47 338 l 284 338 l 284 540 l 47 540 l 47 686 l 276 686 l 276 935 "},"Ť":{"x_min":20,"x_max":750,"ha":770,"o":"m 277 0 l 277 756 l 20 756 l 20 935 l 750 935 l 750 756 l 488 756 l 488 0 l 277 0 m 461 1006 l 307 1006 l 166 1180 l 310 1180 l 385 1089 l 456 1181 l 601 1181 l 461 1006 "},"Ś":{"x_min":57.109375,"x_max":704,"ha":758,"o":"m 57 44 l 100 221 q 340 160 218 160 q 449 187 410 160 q 489 261 489 214 q 453 331 489 303 q 330 390 418 360 q 68 669 68 478 q 164 871 68 792 q 422 951 261 951 q 667 902 562 951 l 619 731 q 419 777 523 777 q 319 752 355 777 q 283 686 283 727 q 313 624 283 650 q 458 556 343 598 q 645 443 586 510 q 704 274 704 375 q 604 65 704 145 q 326 -15 505 -15 q 57 44 174 -15 m 398 1181 l 619 1181 l 450 1006 l 281 1006 l 398 1181 "},"ň":{"x_min":83,"x_max":734,"ha":817,"o":"m 83 0 l 83 460 q 83 679 83 561 l 262 679 l 272 583 l 277 583 q 488 694 352 694 q 667 616 601 694 q 734 398 734 539 l 734 0 l 523 0 l 523 370 q 412 522 523 522 q 332 487 367 522 q 297 388 297 452 l 297 0 l 83 0 m 478 761 l 337 761 l 200 973 l 335 973 l 408 851 l 480 973 l 615 973 l 478 761 "},"ŗ":{"x_min":54.40625,"x_max":503.875,"ha":531,"o":"m 83 0 l 83 452 q 83 679 83 605 l 265 679 l 265 549 l 273 549 q 349 657 298 620 q 458 694 401 694 q 503 689 490 694 l 503 489 q 446 496 477 496 q 342 462 388 496 q 296 343 296 428 l 296 0 l 83 0 m 153 -341 l 54 -341 q 125 -63 103 -207 l 275 -63 q 153 -341 223 -225 "},"ę":{"x_min":45.390625,"x_max":696,"ha":735,"o":"m 687 271 l 245 271 q 305 176 250 210 q 440 143 359 143 q 630 172 543 143 l 657 29 q 601 9 634 19 q 535 -25 568 0 q 479 -80 501 -49 q 458 -136 458 -111 q 473 -174 458 -159 q 512 -189 489 -189 q 580 -173 543 -189 l 595 -250 q 478 -275 548 -275 q 384 -244 419 -275 q 349 -159 349 -213 q 444 -13 349 -79 q 410 -15 435 -15 q 142 77 239 -15 q 45 331 45 170 q 138 586 45 479 q 389 694 231 694 q 615 598 535 694 q 696 352 696 502 q 687 271 696 303 m 244 418 l 500 418 q 472 508 500 465 q 378 552 444 552 q 288 515 324 552 q 244 418 253 478 "}}}
